# xmcd
#
# Track frame offsets:
#   150
#   16230
#   32734
#   54757
#   71166
#   89797
#   105418
#   118569
#   133662
#   150941
#   168564
#   184675
#   200856
#   218682
#   234826
#   253974
#   273859
#
# Disc length: 3876 seconds
#
# Revision: 0
# Processed by: cddbd v1.5.2PL0 Copyright (c) Steve Scherf et al.
# Submitted via: GXTranscoder 2.0.1939
#
DISCID=e80f2211
DTITLE=twain - twain
DYEAR=2000
DGENRE=Country
TTITLE0=t1
TTITLE1=t2
TTITLE2=t3
TTITLE3=t4
TTITLE4=t5
TTITLE5=t6
TTITLE6=t7
TTITLE7=t8
TTITLE8=t9
TTITLE9=t10
TTITLE10=t11
TTITLE11=t12
TTITLE12=t13
TTITLE13=t14
TTITLE14=t15
TTITLE15=t16
TTITLE16=t17
EXTD=t
EXTT0=
EXTT1=
EXTT2=
EXTT3=
EXTT4=
EXTT5=
EXTT6=
EXTT7=
EXTT8=
EXTT9=
EXTT10=
EXTT11=
EXTT12=
EXTT13=
EXTT14=
EXTT15=
EXTT16=
PLAYORDER=
